# xmcd CD database file
#
# Track frame offsets:
#	150
#	17802
#	33740
#	51392
#
# Disc length: 894 seconds
#
# Revision: 0
# Processed by: cddbd v1.5.1PL0 Copyright (c) Steve Scherf et al.
# Submitted via: CDex 1.51
#
DISCID=32037c04
DTITLE=鈴木達央 - VOICE
DYEAR=2005
DGENRE=Anime
TTITLE0=VOICE
TTITLE1=myself
TTITLE2=VOICE(off vocal)
TTITLE3=myself(off vocal)
EXTD=YEAR: 2005
EXTT0=
EXTT1=
EXTT2=
EXTT3=
PLAYORDER=
